<svg width="512" height="512" viewBox="0 0 512 512" fill="none" xmlns="http://www.w3.org/2000/svg">
<path fill-rule="evenodd" clip-rule="evenodd" d="M259.779 80.0712C260.002 72.4732 264.695 65.7691 271.734 62.9757C278.774 60.1823 286.763 61.8025 292.126 67.1657L332.351 107.39L397.268 42.4732C356.78 15.6327 308.215 0 256 0C114.615 0 0 114.615 0 256C0 308.225 15.6385 356.798 42.488 397.29L107.409 332.369L67.1844 292.145C61.8769 286.837 60.2009 278.792 62.9943 271.753C65.7877 264.714 72.4918 260.021 80.0898 259.797L236.519 255.328C241.715 255.16 246.743 257.171 250.43 260.859C254.117 264.546 256.129 269.574 255.961 274.77L251.492 431.199C251.268 438.797 246.575 445.501 239.536 448.294C232.497 451.088 224.507 449.468 219.144 444.104L178.92 403.88L113.856 468.943C154.519 496.141 203.407 512 256 512C397.385 512 512 397.385 512 256C512 203.398 496.135 154.501 468.928 113.834L403.861 178.901L444.086 219.126C449.393 224.433 451.069 232.478 448.276 239.517C445.482 246.557 438.778 251.249 431.18 251.473L274.751 255.942C269.555 256.11 264.527 254.099 260.84 250.411C257.153 246.724 255.142 241.696 255.309 236.5L259.779 80.0712Z" fill="#FFA6A6"/>
</svg>
